<svg width="37" height="37" viewBox="0 0 37 37" fill="none" xmlns="http://www.w3.org/2000/svg">
<path d="M18.5 37C28.7172 37 37 28.7172 37 18.5C37 8.28273 28.7172 0 18.5 0C8.28273 0 0 8.28273 0 18.5C0 28.7172 8.28273 37 18.5 37Z" fill="#60FFD9"/>
<path d="M31.9305 21.5499L23.4266 12.1001C23.307 11.9666 23.0549 11.9666 22.9351 12.1001L16 20.3333C17.0869 19.0672 17.0869 19.0672 16 20.3333V22H16.5666V21.4442V20.8883C16.5666 20.7354 16.7086 20.6104 16.8817 20.6104C17.055 20.6104 17.1967 20.7354 17.1967 20.8883V21.4442V22H18.1415V21.4442V20.8883C18.1415 20.7354 18.2832 20.6104 18.4565 20.6104C18.6298 20.6104 18.7715 20.7354 18.7715 20.8883V21.4442V22H19.7163V21.4442V20.8883C19.7163 20.7354 19.8581 20.6104 20.0314 20.6104C20.2047 20.6104 20.3463 20.7354 20.3463 20.8883V21.4442V22H21.2912V21.4442V20.8883C21.2912 20.7354 21.4329 20.6104 21.6061 20.6104C21.7793 20.6104 21.9213 20.7354 21.9213 20.8883V21.4442V22H22.8661V21.4442V20.8883C22.8661 20.7354 23.0078 20.6104 23.1809 20.6104C23.3542 20.6104 23.4959 20.7354 23.4959 20.8883V21.4442V22H24.4408V21.4442V20.8883C24.4408 20.7354 24.5826 20.6104 24.7557 20.6104C24.929 20.6104 25.0707 20.7354 25.0707 20.8883V21.4442V22H26.0157V21.4442V20.8883C26.0157 20.7354 26.1573 20.6104 26.3306 20.6104C26.5039 20.6104 26.6456 20.7354 26.6456 20.8883V21.4442V22H27.5904V21.4442V20.8883C27.5904 20.7354 27.7322 20.6104 27.9054 20.6104C28.0785 20.6104 28.2205 20.7354 28.2205 20.8883V21.4442V22H29.1653V21.4442V20.8883C29.1653 20.7354 29.307 20.6104 29.4802 20.6104C29.6534 20.6104 29.7951 20.7354 29.7951 20.8883V21.4442V22H31.6849C31.8046 22 31.9149 21.939 31.9683 21.8416C32.0219 21.7472 32.0063 21.6332 31.9305 21.5499ZM20.6611 19.4987C20.5415 19.4987 20.4313 19.4376 20.3777 19.3403C20.3243 19.2458 20.3401 19.1318 20.4157 19.0484L22.9351 16.2691C23.0549 16.1357 23.307 16.1357 23.4266 16.2691L25.9464 19.0484C26.0219 19.1318 26.0377 19.2458 25.984 19.3403C25.9305 19.4376 25.8203 19.4987 25.7006 19.4987H20.6611Z" fill="black"/>
<path d="M5.06949 21.5499L13.5734 12.1001C13.693 11.9666 13.9451 11.9666 14.0649 12.1001L21 20.3333C19.9131 19.0672 19.9131 19.0672 21 20.3333V22H20.4334V21.4442V20.8883C20.4334 20.7354 20.2914 20.6104 20.1183 20.6104C19.945 20.6104 19.8033 20.7354 19.8033 20.8883V21.4442V22H18.8585V21.4442V20.8883C18.8585 20.7354 18.7168 20.6104 18.5435 20.6104C18.3702 20.6104 18.2285 20.7354 18.2285 20.8883V21.4442V22H17.2837V21.4442V20.8883C17.2837 20.7354 17.1419 20.6104 16.9686 20.6104C16.7953 20.6104 16.6537 20.7354 16.6537 20.8883V21.4442V22H15.7088V21.4442V20.8883C15.7088 20.7354 15.5671 20.6104 15.3939 20.6104C15.2207 20.6104 15.0787 20.7354 15.0787 20.8883V21.4442V22H14.1339V21.4442V20.8883C14.1339 20.7354 13.9922 20.6104 13.8191 20.6104C13.6458 20.6104 13.5041 20.7354 13.5041 20.8883V21.4442V22H12.5592V21.4442V20.8883C12.5592 20.7354 12.4174 20.6104 12.2443 20.6104C12.071 20.6104 11.9293 20.7354 11.9293 20.8883V21.4442V22H10.9843V21.4442V20.8883C10.9843 20.7354 10.8427 20.6104 10.6694 20.6104C10.4961 20.6104 10.3544 20.7354 10.3544 20.8883V21.4442V22H9.4096V21.4442V20.8883C9.4096 20.7354 9.26778 20.6104 9.09463 20.6104C8.92149 20.6104 8.77955 20.7354 8.77955 20.8883V21.4442V22H7.83475V21.4442V20.8883C7.83475 20.7354 7.69303 20.6104 7.51978 20.6104C7.34663 20.6104 7.20492 20.7354 7.20492 20.8883V21.4442V22H5.31509C5.19543 22 5.08515 21.939 5.03166 21.8416C4.97806 21.7472 4.99372 21.6332 5.06949 21.5499ZM16.3389 19.4987C16.4585 19.4987 16.5687 19.4376 16.6223 19.3403C16.6757 19.2458 16.6599 19.1318 16.5843 19.0484L14.0649 16.2691C13.9451 16.1357 13.693 16.1357 13.5734 16.2691L11.0536 19.0484C10.9781 19.1318 10.9623 19.2458 11.016 19.3403C11.0695 19.4376 11.1797 19.4987 11.2994 19.4987H16.3389Z" fill="black"/>
</svg>
