<svg width="142" height="31" viewBox="0 0 142 31" fill="none" xmlns="http://www.w3.org/2000/svg">
<path d="M15.5 30C23.5081 30 30 23.5081 30 15.5C30 7.49187 23.5081 1 15.5 1C7.49187 1 1 7.49187 1 15.5C1 23.5081 7.49187 30 15.5 30Z" fill="#60FFD9"/>
<path d="M17 17.5L11.4446 10.09C11.3464 9.96998 11.1394 9.96998 11.0411 10.09L4.05699 18.5949C3.9949 18.6699 3.98199 18.7725 4.02595 18.8574C4.06996 18.9451 4.16048 19 4.25878 19H5.8108V18.4998V17.9995C5.8108 17.8619 5.9272 17.7494 6.06947 17.7494C6.21174 17.7494 6.32814 17.8619 6.32814 17.9995V18.4998V19H7.10415V18.4998V17.9995C7.10415 17.8619 7.22055 17.7494 7.36283 17.7494C7.5051 17.7494 7.6215 17.8619 7.6215 17.9995V18.4998V19H8.3975V18.4998V17.9995C8.3975 17.8619 8.51391 17.7494 8.65618 17.7494C8.79844 17.7494 8.91485 17.8619 8.91485 17.9995V18.4998V19H9.69086V18.4998V17.9995C9.69086 17.8619 9.80725 17.7494 9.94953 17.7494C10.0918 17.7494 10.2082 17.8619 10.2082 17.9995V18.4998V19H10.9842V18.4998V17.9995C10.9842 17.8619 11.1006 17.7494 11.2429 17.7494C11.3851 17.7494 11.5015 17.8619 11.5015 17.9995V18.4998V19H12.2776V18.4998V17.9995C12.2776 17.8619 12.3939 17.7494 12.5362 17.7494C12.6785 17.7494 12.7949 17.8619 12.7949 17.9995V18.4998V19H13.5709V18.4998V17.9995C13.5709 17.8619 13.6873 17.7494 13.8296 17.7494C13.9718 17.7494 14.0882 17.8619 14.0882 17.9995V18.4998V19H14.8644V18.4998V17.9995C14.8644 17.8619 14.9806 17.7494 15.1229 17.7494C15.2653 17.7494 15.3815 17.8619 15.3815 17.9995V18.4998V19H16.1576V18.4998V17.9995C16.1576 17.8619 16.2741 17.7494 16.4162 17.7494C16.5585 17.7494 16.675 17.9547 16.675 17.9547V18.2022V18.4998V19L17 19V17.5ZM9.17352 16.7488C9.07522 16.7488 8.98469 16.6938 8.94071 16.6063C8.89674 16.5212 8.90967 16.4186 8.97175 16.3436L11.0411 13.8422C11.1394 13.7221 11.3464 13.7221 11.4446 13.8422L13.514 16.3436C13.5761 16.4186 13.589 16.5212 13.545 16.6063C13.501 16.6938 13.4105 16.7488 13.3123 16.7488H9.17352Z" fill="black"/>
<path d="M26.9392 18.5949L19.4983 10.0901C19.3936 9.96998 19.173 9.96998 19.0682 10.0901L13 17.5C13.951 16.3605 13.951 16.3605 13 17.5V19H13.4958V18.4998V17.9995C13.4958 17.8619 13.62 17.7494 13.7715 17.7494C13.9231 17.7494 14.0471 17.8619 14.0471 17.9995V18.4998V19H14.8738V18.4998V17.9995C14.8738 17.8619 14.9978 17.7494 15.1494 17.7494C15.3011 17.7494 15.4251 17.8619 15.4251 17.9995V18.4998V19H16.2518V18.4998V17.9995C16.2518 17.8619 16.3758 17.7494 16.5275 17.7494C16.6791 17.7494 16.803 17.8619 16.803 17.9995V18.4998V19H17.6298V18.4998V17.9995C17.6298 17.8619 17.7538 17.7494 17.9053 17.7494C18.0569 17.7494 18.1811 17.8619 18.1811 17.9995V18.4998V19H19.0078V18.4998V17.9995C19.0078 17.8619 19.1318 17.7494 19.2833 17.7494C19.4349 17.7494 19.5589 17.8619 19.5589 17.9995V18.4998V19H20.3857V18.4998V17.9995C20.3857 17.8619 20.5098 17.7494 20.6612 17.7494C20.8129 17.7494 20.9369 17.8619 20.9369 17.9995V18.4998V19H21.7637V18.4998V17.9995C21.7637 17.8619 21.8876 17.7494 22.0393 17.7494C22.1909 17.7494 22.3149 17.8619 22.3149 17.9995V18.4998V19H23.1416V18.4998V17.9995C23.1416 17.8619 23.2657 17.7494 23.4172 17.7494C23.5687 17.7494 23.6929 17.8619 23.6929 17.9995V18.4998V19H24.5196V18.4998V17.9995C24.5196 17.8619 24.6436 17.7494 24.7952 17.7494C24.9467 17.7494 25.0707 17.8619 25.0707 17.9995V18.4998V19H26.7243C26.829 19 26.9255 18.9451 26.9723 18.8574C27.0192 18.7725 27.0055 18.6699 26.9392 18.5949ZM17.0785 16.7488C16.9738 16.7488 16.8774 16.6938 16.8305 16.6063C16.7838 16.5212 16.7976 16.4186 16.8637 16.3436L19.0682 13.8422C19.173 13.7221 19.3936 13.7221 19.4983 13.8422L21.7031 16.3436C21.7692 16.4186 21.783 16.5212 21.736 16.6063C21.6892 16.6938 21.5928 16.7488 21.488 16.7488H17.0785Z" fill="black"/>
<path d="M45.1961 10.1738L47.4689 16.5L49.924 10.1738H52.1297V22.8262H50.4034V17.7774L50.5473 12.494L47.9676 19.3068H46.9511L44.5824 12.6764L44.7262 17.7774V22.8262H43V10.1738H45.1961ZM65.6725 16.978H59.8418V21.4619H66.641V22.8262H58.0677V10.1738H66.5547V11.5468H59.8418V15.6137H65.6725V16.978ZM82.1498 11.5468H77.8344V22.8262H76.1081V11.5468H71.7927V10.1738H82.1498V11.5468ZM92.0968 17.6645H89.3056V22.8262H87.5412V10.1738H91.6361C92.288 10.1854 92.9017 10.2694 93.4771 10.4258C94.0525 10.5822 94.5542 10.8168 94.9832 11.1297C95.4178 11.4425 95.7563 11.8365 95.9997 12.3115C96.2487 12.7808 96.3737 13.334 96.3737 13.9712C96.3737 14.3826 96.3065 14.7591 96.1722 15.1009C96.0445 15.4428 95.8654 15.7527 95.6351 16.0308C95.4047 16.3088 95.1305 16.5551 94.8107 16.7694C94.4908 16.9838 94.1392 17.1663 93.7559 17.3169L96.7187 22.7219L96.7094 22.8262H94.8396L92.0968 17.6645ZM89.3056 16.3437H91.6837C92.08 16.3378 92.454 16.2828 92.8065 16.1785C93.1581 16.0685 93.4649 15.9121 93.727 15.7093C93.9956 15.5065 94.2063 15.2602 94.3593 14.9706C94.5132 14.6751 94.5896 14.3363 94.5896 13.9539C94.5896 13.5484 94.516 13.195 94.3695 12.8937C94.2222 12.5867 94.018 12.3318 93.7559 12.1291C93.4929 11.9204 93.1805 11.764 92.8159 11.6598C92.4577 11.5555 92.0642 11.5005 91.6361 11.4947H89.3056V16.3437ZM102.215 10.1738H110.655V11.5729H107.308V21.4358H110.655V22.8262H102.215V21.4358H105.486V11.5729H102.215V10.1738ZM126 19.0201C125.918 19.6053 125.751 20.1439 125.502 20.6363C125.252 21.1231 124.927 21.5431 124.524 21.8965C124.127 22.2441 123.655 22.5164 123.104 22.7132C122.561 22.9045 121.954 23 121.282 23C120.707 23 120.183 22.9275 119.71 22.7827C119.243 22.6322 118.824 22.4265 118.454 22.1657C118.089 21.9051 117.773 21.5981 117.504 21.2447C117.242 20.8913 117.021 20.5061 116.842 20.089C116.669 19.6719 116.539 19.2344 116.449 18.7768C116.365 18.319 116.321 17.8556 116.315 17.3864V15.6223C116.321 15.1531 116.365 14.6896 116.449 14.2319C116.539 13.7743 116.669 13.3369 116.842 12.9198C117.021 12.5027 117.242 12.1174 117.504 11.764C117.773 11.4049 118.089 11.0949 118.454 10.8342C118.824 10.5735 119.243 10.3708 119.71 10.2259C120.176 10.0753 120.7 10 121.282 10C121.98 10 122.603 10.0985 123.152 10.2955C123.702 10.4866 124.175 10.7618 124.571 11.121C124.968 11.4744 125.285 11.9002 125.522 12.3984C125.764 12.8967 125.924 13.447 126 14.0495H124.226C124.168 13.6671 124.07 13.3108 123.929 12.9806C123.789 12.6504 123.6 12.3607 123.364 12.1116C123.127 11.8626 122.836 11.6685 122.491 11.5294C122.152 11.3846 121.749 11.3122 121.282 11.3122C120.861 11.3122 120.487 11.3759 120.16 11.5033C119.84 11.625 119.562 11.793 119.325 12.0074C119.096 12.2217 118.901 12.4708 118.741 12.7547C118.588 13.0385 118.463 13.3398 118.367 13.6585C118.271 13.977 118.201 14.3044 118.156 14.6404C118.118 14.9706 118.098 15.2922 118.098 15.605V17.3864C118.098 17.6992 118.118 18.0237 118.156 18.3597C118.201 18.6898 118.271 19.0171 118.367 19.3416C118.463 19.6602 118.588 19.9616 118.741 20.2454C118.895 20.5292 119.09 20.7812 119.325 21.0014C119.562 21.2158 119.84 21.3866 120.16 21.5141C120.48 21.6358 120.854 21.6966 121.282 21.6966C121.749 21.6966 122.152 21.63 122.491 21.4967C122.836 21.3635 123.127 21.178 123.364 20.9405C123.6 20.6972 123.789 20.4133 123.929 20.089C124.07 19.7588 124.168 19.4025 124.226 19.0201H126Z" fill="#60FFD9"/>
</svg>
