<svg width="37" height="37" viewBox="0 0 37 37" fill="none" xmlns="http://www.w3.org/2000/svg">
    <path d="M18.5 37C28.7172 37 37 28.7172 37 18.5C37 8.28273 28.7172 0 18.5 0C8.28273 0 0 8.28273 0 18.5C0 28.7172 8.28273 37 18.5 37Z" fill="#60FFD9"/>
    <path fill-rule="evenodd" clip-rule="evenodd" d="M32.4622 21.9498L23.9583 12.5C23.8387 12.3665 23.5866 12.3665 23.4668 12.5L19.0317 17.7653L14.5966 12.5C14.4768 12.3665 14.2247 12.3665 14.1051 12.5L5.60119 21.9498C5.52542 22.0331 5.50976 22.1471 5.56336 22.2415C5.61685 22.3389 5.72713 22.3999 5.84679 22.3999H9.39037V21.3C9.39037 21.1471 9.66266 21 9.89037 21C10.1181 21 10.3904 21.1471 10.3904 21.3V22.3999H12.3904V21.3C12.3904 21.1471 12.6627 21 12.8904 21C13.1181 21 13.3904 21.1471 13.3904 21.3V22.3999H15.3904V21.3C15.3904 21.1471 15.7172 21 15.8904 21C16.0636 21 16.3904 21.1471 16.3904 21.3V22.3999H18.3904V21.3C18.3904 21.1471 18.6568 21 18.8904 21C19.124 21 19.3904 21.1484 19.3904 21.3C19.3904 21.4516 19.3904 22.3999 19.3904 22.3999H21.3904V21.3C21.3904 21.1471 21.7172 21 21.8904 21C22.0636 21 22.3904 21.1471 22.3904 21.3V22.3999H24.3904V21.3C24.3904 21.1471 24.7173 21 24.8904 21C25.0637 21 25.3904 21.1471 25.3904 21.3V22.3999H27.3904V21.3C27.3904 21.1471 27.7172 21 27.8904 21C28.0635 21 28.3904 21.1471 28.3904 21.3V22.3999H32.2166C32.3363 22.3999 32.4466 22.3389 32.5 22.2415C32.5536 22.1471 32.538 22.0331 32.4622 21.9498ZM20.9094 19.7402C20.963 19.8375 21.0732 19.8986 21.1928 19.8986H26.2323C26.352 19.8986 26.4622 19.8375 26.5157 19.7402C26.5694 19.6457 26.5536 19.5317 26.4781 19.4483L23.9583 16.669C23.8387 16.5356 23.5866 16.5356 23.4668 16.669L20.9474 19.4483C20.8718 19.5317 20.856 19.6457 20.9094 19.7402ZM17.154 19.7402C17.1004 19.8375 16.9902 19.8986 16.8706 19.8986H11.8311C11.7114 19.8986 11.6012 19.8375 11.5477 19.7402C11.494 19.6457 11.5098 19.5317 11.5853 19.4483L14.1051 16.669C14.2247 16.5356 14.4768 16.5356 14.5966 16.669L17.116 19.4483C17.1916 19.5317 17.2074 19.6457 17.154 19.7402Z" fill="black"/>
</svg>
