<svg width="30" height="30" viewBox="0 0 30 30" fill="none" xmlns="http://www.w3.org/2000/svg">
<circle cx="15" cy="15" r="15" fill="#262626"/>
<path d="M17.1033 18.732C16.9094 18.5535 16.8026 18.3149 16.8026 18.0605C16.8026 17.8131 16.9044 17.5794 17.0889 17.4034L18.6159 15.9403L14.5379 15.9403L7.99608 15.9089C7.44681 15.9061 7 15.4846 7 14.969V14.9644C7.00277 14.4459 7.4546 14.0265 8.00669 14.029L14.5458 14.0604H18.6159L17.0889 12.5973C16.9044 12.4203 16.8029 12.1869 16.8029 11.9395C16.8029 11.6848 16.9095 11.4464 17.1035 11.268C17.4981 10.9053 18.1334 10.9115 18.5197 11.2817L21.714 14.3424L21.7142 14.3426C21.717 14.3454 21.7199 14.3482 21.7226 14.3513L21.7298 14.3583C21.7346 14.3629 21.7392 14.3676 21.7439 14.3724L21.7591 14.3888L21.7633 14.3933C21.7674 14.3976 21.7712 14.4023 21.7754 14.407C21.7807 14.4129 21.7856 14.4191 21.7909 14.4253L21.7934 14.4285L21.805 14.4428C21.8108 14.4501 21.8163 14.4576 21.8218 14.465C21.8258 14.47 21.8292 14.475 21.8329 14.4801C21.8382 14.4874 21.8433 14.4954 21.849 14.5031L21.8586 14.5182C21.8639 14.5263 21.8685 14.5343 21.8732 14.542L21.883 14.5587C21.8873 14.5665 21.8914 14.5739 21.8954 14.5816C21.8987 14.5878 21.902 14.594 21.905 14.6002C21.9088 14.6074 21.912 14.6144 21.9153 14.6214L21.9252 14.643L21.9329 14.6619L21.9426 14.6863L21.9484 14.7022C21.9519 14.7123 21.9552 14.7213 21.9581 14.7303L21.9627 14.7457C21.9655 14.7552 21.9683 14.7649 21.9708 14.7747L21.9743 14.789C21.9768 14.7991 21.9791 14.8089 21.9813 14.819L21.9838 14.8315C21.9862 14.8438 21.9879 14.8536 21.9896 14.8637L21.9924 14.8842C21.9937 14.8925 21.9949 14.9006 21.9957 14.9088L21.997 14.9256L21.9978 14.9364C21.9983 14.9423 21.999 14.9482 21.9992 14.9543C21.9998 14.9664 22 14.9788 22 14.9913V15.0068C21.9998 15.0209 21.9995 15.0333 21.999 15.0458C21.9987 15.0515 21.9982 15.0574 21.9975 15.0633L21.9967 15.0741L21.9954 15.0912C21.9945 15.0991 21.9934 15.1075 21.9924 15.1155L21.9896 15.1357C21.9879 15.1461 21.9862 15.1559 21.9843 15.1659L21.9816 15.1807C21.9793 15.1908 21.9771 15.2009 21.9746 15.2107L21.971 15.225C21.9685 15.2348 21.9655 15.2445 21.9627 15.2543L21.9581 15.269C21.9551 15.2784 21.9518 15.2874 21.9486 15.2966L21.9428 15.3129L21.9329 15.3375C21.9302 15.345 21.9277 15.3507 21.9252 15.3565L21.9153 15.3783C21.912 15.3853 21.9088 15.3923 21.9053 15.399C21.902 15.4057 21.8987 15.4119 21.8954 15.4181C21.8914 15.4257 21.8873 15.4331 21.8832 15.4406L21.8831 15.4407L21.873 15.4578C21.8685 15.4654 21.8639 15.4732 21.8589 15.481L21.8486 15.4965C21.8433 15.5043 21.8382 15.5121 21.8326 15.5199C21.8292 15.5247 21.8258 15.5297 21.8218 15.5348L21.8047 15.5572L21.7934 15.5712L21.7909 15.5743C21.7856 15.5806 21.7807 15.5868 21.7752 15.593L21.7629 15.6064L21.7604 15.6094L21.7437 15.6274L21.7296 15.6417L21.7223 15.6487L21.7135 15.6576L18.5195 18.7183C18.1329 19.0886 17.4979 19.0945 17.1033 18.732Z" fill="#888888"/>
</svg>
