<svg width="140" height="36" viewBox="0 0 140 36" fill="none" xmlns="http://www.w3.org/2000/svg">
<path d="M19 36C29.4934 36 38 27.9411 38 18C38 8.05887 29.4934 0 19 0C8.50659 0 0 8.05887 0 18C0 27.9411 8.50659 36 19 36Z" fill="#60FFD9"/>
<path d="M20 19.7494L13.7089 12.0901C13.6072 11.97 13.3929 11.97 13.2911 12.0901L6.05901 20.5949C5.99473 20.6699 5.98134 20.7725 6.02687 20.8574C6.07244 20.9451 6.16618 21 6.26797 21H7.87509V20.4998V19.9995C7.87509 19.8619 7.99563 19.7494 8.14294 19.7494C8.29026 19.7494 8.4108 19.8619 8.4108 19.9995V20.4998V21H9.21435V20.4998V19.9995C9.21435 19.8619 9.33489 19.7494 9.48222 19.7494C9.62954 19.7494 9.75008 19.8619 9.75008 19.9995V20.4998V21H10.5536V20.4998V19.9995C10.5536 19.8619 10.6742 19.7494 10.8215 19.7494C10.9688 19.7494 11.0893 19.8619 11.0893 19.9995V20.4998V21H11.8929V20.4998V19.9995C11.8929 19.8619 12.0134 19.7494 12.1608 19.7494C12.3081 19.7494 12.4286 19.8619 12.4286 19.9995V20.4998V21H13.2322V20.4998V19.9995C13.2322 19.8619 13.3527 19.7494 13.5 19.7494C13.6473 19.7494 13.7679 19.8619 13.7679 19.9995V20.4998V21H14.5714V20.4998V19.9995C14.5714 19.8619 14.692 19.7494 14.8393 19.7494C14.9866 19.7494 15.1071 19.8619 15.1071 19.9995V20.4998V21H15.9107V20.4998V19.9995C15.9107 19.8619 16.0312 19.7494 16.1786 19.7494C16.3259 19.7494 16.4464 19.8619 16.4464 19.9995V20.4998V21H17.25V20.4998V19.9995C17.25 19.8619 17.3705 19.7494 17.5178 19.7494C17.6652 19.7494 17.7856 19.8619 17.7856 19.9995V20.4998V21H18.5892V20.4998V19.9995C18.5892 19.8619 18.7098 19.7494 18.857 19.7494C19.0044 19.7494 19.125 19.8619 19.125 19.9995V20.4998V21L20 20.8574C19.5 20.4523 19.5268 19.8919 20 19.7494C19.7679 20.107 19.5268 19.8919 20 19.7494ZM11.3572 18.7488C11.2554 18.7488 11.1617 18.6938 11.1161 18.6063C11.0706 18.5212 11.084 18.4186 11.1483 18.3436L13.2911 15.8422C13.3929 15.7221 13.6072 15.7221 13.709 15.8422L15.8518 18.3436C15.9161 18.4186 15.9295 18.5212 15.8839 18.6063C15.8384 18.6938 15.7446 18.7488 15.6429 18.7488H11.3572Z" fill="black"/>
<path d="M32.451 20.5949L24.7368 12.0901C24.6283 11.97 24.3997 11.97 24.2911 12.0901L18 19.5C18.986 18.3605 18.986 18.3605 18 19.5C18.986 18.3605 18 21 18 21H18.5141V20.4998V19.9995C18.5141 19.8619 18.6427 19.7494 18.7999 19.7494C18.9571 19.7494 19.0855 19.8619 19.0855 19.9995V20.4998V21H19.9427V20.4998V19.9995C19.9427 19.8619 20.0712 19.7494 20.2283 19.7494C20.3855 19.7494 20.5142 19.8619 20.5142 19.9995V20.4998V21H21.3711V20.4998V19.9995C21.3711 19.8619 21.4998 19.7494 21.657 19.7494C21.8141 19.7494 21.9426 19.8619 21.9426 19.9995V20.4998V21H22.7998V20.4998V19.9995C22.7998 19.8619 22.9283 19.7494 23.0854 19.7494C23.2426 19.7494 23.3713 19.8619 23.3713 19.9995V20.4998V21H24.2284V20.4998V19.9995C24.2284 19.8619 24.3569 19.7494 24.5141 19.7494C24.6712 19.7494 24.7997 19.8619 24.7997 19.9995V20.4998V21H25.6569V20.4998V19.9995C25.6569 19.8619 25.7855 19.7494 25.9425 19.7494C26.0997 19.7494 26.2283 19.8619 26.2283 19.9995V20.4998V21H27.0855V20.4998V19.9995C27.0855 19.8619 27.214 19.7494 27.3711 19.7494C27.5283 19.7494 27.6568 19.8619 27.6568 19.9995V20.4998V21H28.5139V20.4998V19.9995C28.5139 19.8619 28.6426 19.7494 28.7996 19.7494C28.9568 19.7494 29.0854 19.8619 29.0854 19.9995V20.4998V21H29.9426V20.4998V19.9995C29.9426 19.8619 30.0711 19.7494 30.2282 19.7494C30.3854 19.7494 30.5139 19.8619 30.5139 19.9995V20.4998V21H32.2282C32.3367 21 32.4367 20.9451 32.4853 20.8574C32.5339 20.7725 32.5197 20.6699 32.451 20.5949ZM22.2283 18.7488C22.1197 18.7488 22.0198 18.6938 21.9711 18.6063C21.9227 18.5212 21.937 18.4186 22.0055 18.3436L24.2911 15.8422C24.3997 15.7221 24.6283 15.7221 24.7368 15.8422L27.0226 18.3436C27.0912 18.4186 27.1054 18.5212 27.0568 18.6063C27.0082 18.6938 26.9082 18.7488 26.7997 18.7488H22.2283Z" fill="black"/>
<path d="M53.3549 11.2139L55.792 19L58.4245 11.2139H60.7897V26.7862H58.9386V20.5722L59.0929 14.0695L56.3267 22.4545H55.2367L52.6968 14.2941L52.851 20.5722V26.7862H51V11.2139H53.3549ZM75.3115 19.5883H69.0593V25.107H76.35V26.7862H67.1569V11.2139H76.2575V12.9038H69.0593V17.9091H75.3115V19.5883ZM92.9799 12.9038H88.3525V26.7862H86.5015V12.9038H81.8741V11.2139H92.9799V12.9038ZM103.646 20.4332H100.653V26.7862H98.7611V11.2139H103.152C103.851 11.2282 104.509 11.3316 105.126 11.5241C105.743 11.7166 106.281 12.0053 106.741 12.3904C107.207 12.7754 107.57 13.2603 107.831 13.8449C108.098 14.4225 108.232 15.1034 108.232 15.8877C108.232 16.394 108.16 16.8574 108.016 17.2781C107.879 17.6988 107.687 18.0802 107.44 18.4225C107.193 18.7647 106.899 19.0678 106.556 19.3316C106.213 19.5954 105.836 19.8201 105.425 20.0054L108.602 26.6578L108.592 26.7862H106.587L103.646 20.4332ZM100.653 18.8076H103.203C103.628 18.8004 104.029 18.7327 104.407 18.6043C104.784 18.4689 105.113 18.2764 105.394 18.0268C105.682 17.7773 105.908 17.4742 106.072 17.1177C106.237 16.754 106.319 16.3369 106.319 15.8663C106.319 15.3672 106.24 14.9323 106.083 14.5615C105.925 14.1836 105.706 13.8699 105.425 13.6203C105.143 13.3636 104.808 13.1711 104.417 13.0428C104.033 12.9144 103.611 12.8467 103.152 12.8396H100.653V18.8076ZM114.496 11.2139H123.546V12.9358H119.957V25.0749H123.546V26.7862H114.496V25.0749H118.003V12.9358H114.496V11.2139ZM140 22.1016C139.912 22.8218 139.733 23.4848 139.466 24.0909C139.198 24.69 138.849 25.2069 138.417 25.6418C137.992 26.0696 137.485 26.4048 136.895 26.6471C136.312 26.8824 135.661 27 134.941 27C134.324 27 133.762 26.9109 133.255 26.7326C132.754 26.5473 132.305 26.2941 131.908 25.9733C131.517 25.6525 131.178 25.2745 130.89 24.8396C130.609 24.4047 130.372 23.9306 130.18 23.4172C129.995 22.9038 129.855 22.3654 129.759 21.8022C129.669 21.2389 129.621 20.6684 129.615 20.091V17.9198C129.621 17.3423 129.669 16.7719 129.759 16.2086C129.855 15.6453 129.995 15.107 130.18 14.5936C130.372 14.0802 130.609 13.6061 130.89 13.1711C131.178 12.7291 131.517 12.3476 131.908 12.0267C132.305 11.7059 132.754 11.4563 133.255 11.2781C133.755 11.0927 134.317 11 134.941 11C135.689 11 136.357 11.1212 136.946 11.3636C137.536 11.5989 138.043 11.9376 138.468 12.3797C138.893 12.8146 139.233 13.3387 139.487 13.9519C139.747 14.5651 139.918 15.2424 140 15.984H138.098C138.036 15.5134 137.93 15.0749 137.779 14.6685C137.629 14.262 137.426 13.9055 137.173 13.5989C136.919 13.2923 136.607 13.0535 136.237 12.8824C135.874 12.7041 135.442 12.615 134.941 12.615C134.489 12.615 134.088 12.6934 133.738 12.8503C133.395 13 133.097 13.2068 132.843 13.4706C132.597 13.7344 132.388 14.041 132.216 14.3904C132.052 14.7398 131.918 15.1105 131.815 15.5027C131.712 15.8949 131.637 16.2977 131.589 16.7112C131.548 17.1177 131.527 17.5134 131.527 17.8984V20.091C131.527 20.4759 131.548 20.8753 131.589 21.2888C131.637 21.6952 131.712 22.0981 131.815 22.4974C131.918 22.8895 132.052 23.2603 132.216 23.6097C132.381 23.9591 132.59 24.2693 132.843 24.5402C133.097 24.804 133.395 25.0143 133.738 25.1712C134.081 25.3209 134.482 25.3958 134.941 25.3958C135.442 25.3958 135.874 25.3138 136.237 25.1498C136.607 24.9858 136.919 24.7576 137.173 24.4653C137.426 24.1658 137.629 23.8164 137.779 23.4172C137.93 23.0108 138.036 22.5723 138.098 22.1016H140Z" fill="#60FFD9"/>
</svg>
