<svg width="142" height="31" viewBox="0 0 142 31" fill="none" xmlns="http://www.w3.org/2000/svg">
    <path d="M15.5 31C24.0604 31 31 24.0604 31 15.5C31 6.93959 24.0604 0 15.5 0C6.93959 0 0 6.93959 0 15.5C0 24.0604 6.93959 31 15.5 31Z" fill="#60FFD9"/>
    <path d="M15.5 17.5L10.1583 10.09C10.0638 9.96998 9.8648 9.96998 9.77028 10.09L3.0548 18.5949C2.9951 18.6699 2.98268 18.7725 3.02495 18.8574C3.06727 18.9451 3.15431 19 3.24883 19H4.74116V18.4998V17.9995C4.74116 17.8619 4.85308 17.7494 4.98988 17.7494C5.12667 17.7494 5.2386 17.8619 5.2386 17.9995V18.4998V19H5.98476V18.4998V17.9995C5.98476 17.8619 6.09668 17.7494 6.23349 17.7494C6.37029 17.7494 6.48221 17.8619 6.48221 17.9995V18.4998V19H7.22837V18.4998V17.9995C7.22837 17.8619 7.3403 17.7494 7.4771 17.7494C7.61389 17.7494 7.72582 17.8619 7.72582 17.9995V18.4998V19H8.47198V18.4998V17.9995C8.47198 17.8619 8.5839 17.7494 8.7207 17.7494C8.85749 17.7494 8.96942 17.8619 8.96942 17.9995V18.4998V19H9.71558V18.4998V17.9995C9.71558 17.8619 9.82751 17.7494 9.9643 17.7494C10.1011 17.7494 10.213 17.8619 10.213 17.9995V18.4998V19H10.9592V18.4998V17.9995C10.9592 17.8619 11.0711 17.7494 11.2079 17.7494C11.3447 17.7494 11.4566 17.8619 11.4566 17.9995V18.4998V19H12.2028V18.4998V17.9995C12.2028 17.8619 12.3147 17.7494 12.4515 17.7494C12.5883 17.7494 12.7002 17.8619 12.7002 17.9995V18.4998V19H13.4465V18.4998V17.9995C13.4465 17.8619 13.5583 17.7494 13.6951 17.7494C13.832 17.7494 13.9438 17.8619 13.9438 17.9995V18.4998V19H14.69V18.4998V17.9995C14.69 17.8619 14.802 17.7494 14.9387 17.7494C15.0755 17.7494 15.1875 17.9547 15.1875 17.9547V18.2022V18.4998V19L15.5 19V17.5ZM7.97454 16.7488C7.88002 16.7488 7.79297 16.6938 7.75068 16.6063C7.70841 16.5212 7.72084 16.4186 7.78053 16.3436L9.77031 13.8422C9.86481 13.7221 10.0638 13.7221 10.1583 13.8422L12.1481 16.3436C12.2078 16.4186 12.2202 16.5212 12.1779 16.6063C12.1356 16.6938 12.0486 16.7488 11.9541 16.7488H7.97454Z" fill="black"/>
    <path d="M28.2435 18.5949L21.3341 10.0901C21.2369 9.96998 21.0321 9.96998 20.9348 10.0901L15.3 17.5C16.1831 16.3605 16.1831 16.3605 15.3 17.5V19H15.7604V18.4998V17.9995C15.7604 17.8619 15.8757 17.7494 16.0164 17.7494C16.1572 17.7494 16.2723 17.8619 16.2723 17.9995V18.4998V19H17.04V18.4998V17.9995C17.04 17.8619 17.1551 17.7494 17.2959 17.7494C17.4367 17.7494 17.5519 17.8619 17.5519 17.9995V18.4998V19H18.3195V18.4998V17.9995C18.3195 17.8619 18.4347 17.7494 18.5755 17.7494C18.7163 17.7494 18.8314 17.8619 18.8314 17.9995V18.4998V19H19.5991V18.4998V17.9995C19.5991 17.8619 19.7142 17.7494 19.8549 17.7494C19.9957 17.7494 20.111 17.8619 20.111 17.9995V18.4998V19H20.8787V18.4998V17.9995C20.8787 17.8619 20.9938 17.7494 21.1345 17.7494C21.2753 17.7494 21.3904 17.8619 21.3904 17.9995V18.4998V19H22.1581V18.4998V17.9995C22.1581 17.8619 22.2734 17.7494 22.414 17.7494C22.5548 17.7494 22.67 17.8619 22.67 17.9995V18.4998V19H23.4377V18.4998V17.9995C23.4377 17.8619 23.5528 17.7494 23.6936 17.7494C23.8344 17.7494 23.9495 17.8619 23.9495 17.9995V18.4998V19H24.7172V18.4998V17.9995C24.7172 17.8619 24.8324 17.7494 24.9731 17.7494C25.1138 17.7494 25.2291 17.8619 25.2291 17.9995V18.4998V19H25.9968V18.4998V17.9995C25.9968 17.8619 26.1119 17.7494 26.2527 17.7494C26.3934 17.7494 26.5085 17.8619 26.5085 17.9995V18.4998V19H28.044C28.1412 19 28.2308 18.9451 28.2743 18.8574C28.3178 18.7725 28.3051 18.6699 28.2435 18.5949ZM19.0872 16.7488C18.99 16.7488 18.9004 16.6938 18.8569 16.6063C18.8135 16.5212 18.8263 16.4186 18.8877 16.3436L20.9348 13.8422C21.0321 13.7221 21.2369 13.7221 21.3341 13.8422L23.3814 16.3436C23.4428 16.4186 23.4556 16.5212 23.412 16.6063C23.3685 16.6938 23.279 16.7488 23.1817 16.7488H19.0872Z" fill="black"/>
    <path d="M45.3549 8.20054L47.792 15.5L50.4245 8.20054H52.7897V22.7995H50.9386V16.9739L51.0929 10.8777L48.3267 18.7386H47.2367L44.6968 11.0882L44.851 16.9739V22.7995H43V8.20054H45.3549ZM67.3115 16.0515H61.0593V21.2253H68.35V22.7995H59.1569V8.20054H68.2575V9.78477H61.0593V14.4773H67.3115V16.0515ZM84.9799 9.78477H80.3525V22.7995H78.5015V9.78477H73.8741V8.20054H84.9799V9.78477ZM95.646 16.8437H92.653V22.7995H90.761V8.20054H95.152C95.851 8.21391 96.509 8.31083 97.126 8.49131C97.743 8.6718 98.281 8.94251 98.741 9.30349C99.207 9.66444 99.57 10.119 99.831 10.6671C100.098 11.2086 100.232 11.8469 100.232 12.5822C100.232 13.0568 100.16 13.4913 100.016 13.8857C99.879 14.2801 99.687 14.6377 99.44 14.9586C99.193 15.2794 98.899 15.5636 98.556 15.8109C98.213 16.0582 97.836 16.2688 97.425 16.4426L100.602 22.6791L100.592 22.7995H98.587L95.646 16.8437ZM92.653 15.3196H95.203C95.628 15.3129 96.029 15.2494 96.407 15.129C96.784 15.0021 97.113 14.8216 97.394 14.5876C97.682 14.3537 97.908 14.0695 98.072 13.7353C98.237 13.3944 98.319 13.0034 98.319 12.5622C98.319 12.0943 98.24 11.6865 98.083 11.3389C97.925 10.9846 97.706 10.6905 97.425 10.4566C97.143 10.2159 96.808 10.0354 96.417 9.91512C96.033 9.7948 95.611 9.73129 95.152 9.72461H92.653V15.3196ZM106.496 8.20054H115.546V9.81484H111.957V21.1952H115.546V22.7995H106.496V21.1952H110.003V9.81484H106.496V8.20054ZM132 18.4078C131.912 19.083 131.733 19.7045 131.466 20.2727C131.198 20.8343 130.849 21.319 130.417 21.7267C129.992 22.1278 129.485 22.442 128.895 22.6691C128.312 22.8898 127.661 23 126.941 23C126.324 23 125.762 22.9164 125.255 22.7493C124.754 22.5756 124.305 22.3383 123.908 22.0374C123.517 21.7367 123.178 21.3824 122.89 20.9746C122.609 20.5669 122.372 20.1224 122.18 19.6411C121.995 19.1599 121.855 18.6551 121.759 18.1271C121.669 17.5989 121.621 17.0641 121.615 16.5228V14.4873C121.621 13.9459 121.669 13.4111 121.759 12.883C121.855 12.355 121.995 11.8503 122.18 11.369C122.372 10.8877 122.609 10.4432 122.89 10.0354C123.178 9.621 123.517 9.26337 123.908 8.96257C124.305 8.66177 124.754 8.4278 125.255 8.2607C125.755 8.0869 126.317 8 126.941 8C127.689 8 128.357 8.11363 128.946 8.34092C129.536 8.5615 130.043 8.87902 130.468 9.29345C130.893 9.70121 131.233 10.1925 131.487 10.7674C131.747 11.3423 131.918 11.9773 132 12.6725H130.098C130.036 12.2313 129.93 11.8202 129.779 11.4392C129.629 11.0582 129.426 10.7239 129.173 10.4365C128.919 10.1491 128.607 9.92514 128.237 9.76471C127.874 9.5976 127.442 9.51405 126.941 9.51405C126.489 9.51405 126.088 9.58757 125.738 9.73463C125.395 9.87501 125.097 10.0689 124.843 10.3162C124.597 10.5635 124.388 10.8509 124.216 11.1785C124.052 11.506 123.918 11.8536 123.815 12.2213C123.712 12.5889 123.637 12.9666 123.589 13.3543C123.548 13.7353 123.527 14.1064 123.527 14.4673V16.5228C123.527 16.8837 123.548 17.2581 123.589 17.6458C123.637 18.0267 123.712 18.4044 123.815 18.7788C123.918 19.1464 124.052 19.4941 124.216 19.8216C124.381 20.1491 124.59 20.4399 124.843 20.6939C125.097 20.9413 125.395 21.1384 125.738 21.2855C126.081 21.4259 126.482 21.4961 126.941 21.4961C127.442 21.4961 127.874 21.4192 128.237 21.2654C128.607 21.1117 128.919 20.8977 129.173 20.6237C129.426 20.3429 129.629 20.0154 129.779 19.6411C129.93 19.2601 130.036 18.849 130.098 18.4078H132Z" fill="#60FFD9"/>
</svg>
