<svg width="30" height="30" viewBox="0 0 30 30" fill="none" xmlns="http://www.w3.org/2000/svg">
<circle cx="15" cy="15" r="15" transform="rotate(-90 15 15)" fill="#303030"/>
<path d="M20.7843 12.2231C20.6407 12.43 20.4487 12.5439 20.244 12.5439C20.0449 12.5439 19.8569 12.4353 19.7152 12.2385L18.538 10.6097V14.9596L18.5127 21.9375C18.5104 22.5234 18.1712 23 17.7564 23H17.7527C17.3355 22.997 16.998 22.5151 17 21.9262L17.0253 14.9511V10.6097V7.6506C17.0276 7.6476 17.2568 7.29887 17.2593 7.29586L17.265 7.28825C17.2687 7.28312 17.2725 7.27817 17.2764 7.27322L17.2895 7.25695L17.2931 7.25253C17.2966 7.24811 17.3004 7.24404 17.3042 7.23962C17.3089 7.23396 17.3139 7.22866 17.3189 7.223L17.3214 7.22035L17.3329 7.20797C17.3388 7.20178 17.3448 7.19594 17.3509 7.1901C17.3549 7.18586 17.3589 7.18215 17.363 7.17826C17.3689 7.1726 17.3753 7.16712 17.3815 7.1611L17.3937 7.15084C17.3992 7.146 17.4047 7.14168 17.4101 7.13743L17.4128 7.13528L17.4262 7.12485C17.4325 7.12025 17.4385 7.11583 17.4446 7.11159C17.4496 7.10805 17.4547 7.10451 17.4597 7.10133C17.4654 7.09726 17.4711 7.0939 17.4767 7.09037L17.4941 7.07975L17.5092 7.07162L17.5289 7.06119L17.5417 7.055C17.5498 7.05128 17.5571 7.04775 17.5643 7.04474L17.5767 7.03979C17.5844 7.03678 17.5921 7.03377 17.6 7.03112L17.6115 7.02741C17.6197 7.02476 17.6276 7.02228 17.6357 7.01998L17.6457 7.01733C17.6556 7.01468 17.6635 7.01291 17.6716 7.01114L17.6882 7.00813C17.6948 7.00672 17.7013 7.00548 17.708 7.0046L17.7215 7.00318L17.7301 7.0023C17.7349 7.00177 17.7396 7.00106 17.7445 7.00088C17.7543 7.00018 17.7643 7 17.7743 7H17.7868C17.7981 7.00018 17.8081 7.00053 17.8181 7.00106C17.8228 7.00141 17.8275 7.00194 17.8323 7.00265L17.8409 7.00353L17.8547 7.00495C17.8611 7.00583 17.8679 7.00707 17.8742 7.00813L17.8905 7.01114C17.8989 7.01291 17.9068 7.01468 17.9148 7.0168L17.9267 7.01963C17.9348 7.0221 17.943 7.0244 17.9509 7.02705L17.9624 7.03095C17.9703 7.0336 17.978 7.03678 17.9859 7.03979L17.9978 7.04474C18.0053 7.04792 18.0126 7.05146 18.02 7.05482L18.0331 7.06101L18.0529 7.07162C18.0589 7.07444 18.0635 7.07709 18.0682 7.07973L18.0682 7.07975L18.0857 7.09037C18.0914 7.0939 18.097 7.09726 18.1024 7.10097C18.1078 7.10451 18.1128 7.10805 18.1178 7.11159C18.1239 7.11581 18.1299 7.12021 18.1359 7.12461L18.1359 7.12467L18.1497 7.13546C18.1558 7.14023 18.1621 7.14518 18.1684 7.15049L18.1809 7.16146C18.1872 7.16712 18.1934 7.1726 18.1997 7.17861C18.2036 7.18215 18.2076 7.18586 18.2117 7.1901L18.2297 7.20832L18.241 7.22035L18.2435 7.223C18.2485 7.22866 18.2535 7.23396 18.2585 7.2398L18.2693 7.25289L18.2717 7.25554L18.2862 7.2734L18.2977 7.28843L18.3033 7.29621L18.3105 7.30558L20.7733 10.7125C21.0713 11.1249 21.0761 11.8022 20.7843 12.2231Z" fill="#A3A3A3"/>
<path d="M9.21569 17.7769C9.35931 17.57 9.55126 17.4561 9.75598 17.4561C9.95507 17.4561 10.1431 17.5647 10.2848 17.7615L11.462 19.3903L11.462 15.0404L11.4873 8.06248C11.4896 7.4766 11.8288 7 12.2436 7H12.2473C12.6645 7.00295 13.002 7.48491 13 8.0738L12.9747 15.0489L12.9747 19.3903V22.3494C12.9724 22.3524 12.7432 22.7011 12.7407 22.7041L12.735 22.7117C12.7313 22.7169 12.7275 22.7218 12.7236 22.7268L12.7105 22.743L12.7069 22.7475C12.7034 22.7519 12.6996 22.756 12.6958 22.7604C12.6911 22.766 12.6861 22.7713 12.6811 22.777L12.6786 22.7797L12.6671 22.792C12.6612 22.7982 12.6552 22.8041 12.6491 22.8099C12.6451 22.8141 12.6411 22.8179 12.637 22.8217C12.6311 22.8274 12.6247 22.8329 12.6185 22.8389L12.6063 22.8492C12.6008 22.854 12.5953 22.8583 12.5899 22.8626L12.5872 22.8647L12.5738 22.8752C12.5675 22.8797 12.5615 22.8842 12.5554 22.8884C12.5504 22.892 12.5453 22.8955 12.5403 22.8987C12.5346 22.9027 12.5289 22.9061 12.5233 22.9096L12.5059 22.9202L12.4908 22.9284L12.4711 22.9388L12.4583 22.945C12.4502 22.9487 12.4429 22.9523 12.4357 22.9553L12.4233 22.9602C12.4156 22.9632 12.4079 22.9662 12.4 22.9689L12.3885 22.9726C12.3803 22.9752 12.3724 22.9777 12.3643 22.98L12.3543 22.9827C12.3444 22.9853 12.3365 22.9871 12.3284 22.9889L12.3118 22.9919C12.3052 22.9933 12.2987 22.9945 12.292 22.9954L12.2785 22.9968L12.2699 22.9977C12.2651 22.9982 12.2604 22.9989 12.2555 22.9991C12.2457 22.9998 12.2357 23 12.2257 23H12.2132C12.2019 22.9998 12.1919 22.9995 12.1819 22.9989C12.1772 22.9986 12.1725 22.9981 12.1677 22.9973L12.1591 22.9965L12.1453 22.995C12.1389 22.9942 12.1321 22.9929 12.1258 22.9919L12.1095 22.9889C12.1011 22.9871 12.0932 22.9853 12.0852 22.9832L12.0733 22.9804C12.0652 22.9779 12.057 22.9756 12.0491 22.9729L12.0376 22.9691C12.0297 22.9664 12.022 22.9632 12.0141 22.9602L12.0022 22.9553C11.9947 22.9521 11.9874 22.9485 11.98 22.9452L11.9669 22.939L11.9471 22.9284C11.9411 22.9256 11.9365 22.9229 11.9318 22.9203L11.9318 22.9202L11.9143 22.9096C11.9086 22.9061 11.903 22.9027 11.8976 22.899C11.8922 22.8955 11.8872 22.892 11.8822 22.8884C11.8761 22.8842 11.8701 22.8798 11.8641 22.8754L11.8641 22.8753L11.8503 22.8645C11.8442 22.8598 11.8379 22.8548 11.8316 22.8495L11.8191 22.8385C11.8128 22.8329 11.8066 22.8274 11.8003 22.8214C11.7964 22.8179 11.7924 22.8141 11.7883 22.8099L11.7703 22.7917L11.759 22.7797L11.7565 22.777C11.7515 22.7713 11.7465 22.766 11.7415 22.7602L11.7307 22.7471L11.7283 22.7445L11.7138 22.7266L11.7023 22.7116L11.6967 22.7038L11.6895 22.6944L9.22671 19.2875C8.9287 18.8751 8.92394 18.1978 9.21569 17.7769Z" fill="#A3A3A3"/>
</svg>
